<svg xmlns="http://www.w3.org/2000/svg" width="23.127" height="22.167" viewBox="0 0 23.127 22.167">
  <g id="Icon_feather-shopping-cart" data-name="Icon feather-shopping-cart" transform="translate(-0.5 -0.5)">
    <path id="Path_198" data-name="Path 198" d="M13.921,30.96a.96.96,0,1,1-.96-.96A.96.96,0,0,1,13.921,30.96Z" transform="translate(-3.778 -10.254)" fill="none" stroke="#148be6" stroke-linecap="round" stroke-linejoin="round" stroke-width="2"/>
    <path id="Path_199" data-name="Path 199" d="M30.421,30.96a.96.96,0,1,1-.96-.96A.96.96,0,0,1,30.421,30.96Z" transform="translate(-9.714 -10.254)" fill="none" stroke="#148be6" stroke-linecap="round" stroke-linejoin="round" stroke-width="2"/>
    <path id="Path_200" data-name="Path 200" d="M1.5,1.5H5.341L7.915,14.359A1.921,1.921,0,0,0,9.836,15.9H19.17a1.921,1.921,0,0,0,1.921-1.546L22.627,6.3H6.3" fill="none" stroke="#148be6" stroke-linecap="round" stroke-linejoin="round" stroke-width="2"/>
  </g>
</svg>
