<svg xmlns="http://www.w3.org/2000/svg" width="52.797" height="52" viewBox="0 0 52.797 52">
  <g id="nbc" opacity="0.38">
    <path id="Path_383" data-name="Path 383" d="M8.391,34.068a5.551,5.551,0,1,1,3.038-10.2l15.14,10.2ZM9.927,21.577a5.549,5.549,0,1,1,8.1-6.9l7.737,17.637L9.927,21.577Zm40.132,12.5a5.557,5.557,0,1,0-3.044-10.21L31.841,34.074H50.06Zm-1.536-12.5a5.556,5.556,0,1,0-8.118-6.905L32.652,32.324,48.524,21.576ZM31.434,11.132a1.977,1.977,0,0,0-1.248,2.411l2.349,16.429,7.834-17.908a5.572,5.572,0,1,0-10.632-1.632l1.476,0c.837.041,1.277.264.221.7Zm-13.356.936A5.561,5.561,0,1,1,28.654,10.69L25.9,29.961,18.078,12.068ZM52.1,55.506a9.876,9.876,0,0,1-3.478.737,10,10,0,0,1-10.263-9.718,10,10,0,0,1,10.263-9.718,8.942,8.942,0,0,1,3.478.719v3.715a6.316,6.316,0,1,0,0,10.578v3.687ZM18,37.441h3.768V56.01l-11.6-10.593V55.6H6.4V37.039L18,47.632V37.441ZM34.389,45.9a4.152,4.152,0,0,0,2.142-3.811c-.013-2.823-2.3-4.664-5.13-4.664H23.925v18.2h8.386a5.121,5.121,0,0,0,5.23-5.214A4.9,4.9,0,0,0,34.389,45.9Zm-6.676-5.723h2.8a2.366,2.366,0,1,1,0,4.733h-2.8Zm3.41,12.715H27.714V47.626l3.409-.016a2.64,2.64,0,1,1,0,5.279Z" transform="translate(-2.834 -4.243)" fill="#fff" fill-rule="evenodd"/>
  </g>
</svg>
