<svg xmlns="http://www.w3.org/2000/svg" width="250.246" height="21.305" viewBox="0 0 250.246 21.305">
  <g id="wall_street_" data-name="wall street " opacity="0.38">
    <path id="path13406" d="M380.993,954.029a1.422,1.422,0,1,0,1.353,1.42,1.373,1.373,0,0,0-1.353-1.42M332.7,956.8h6.155v-.541l-.676-.135c-.609-.135-.879-.474-.879-1.353v-8.251h1.42c.879,0,1.353.2,1.42,2.1l.135,3.855c.135,3.517,1.15,4.464,2.841,4.464,1.759,0,2.164-1.15,2.164-2.841v-.676h-.609v.541c0,1.15-.135,1.894-.609,1.894-.406,0-.406-.271-.541-1.691l-.2-2.638c-.271-3.585-.676-4.8-3.314-5.343a5.093,5.093,0,0,0,4.058-5.14,4.975,4.975,0,0,0-5.275-5.073H328.442v.541l.609.135c1.082.271,1.15.812,1.15,3.246V952c0,2.705-.744,3.99-2.5,3.99-1.556,0-2.367-.744-2.367-3.72V937.932c0-.879.271-1.082.947-1.218l.812-.2V935.9h-6.358v.541l.676.2c.609.2.812.406.812,1.285v14.135c0,3.179,1.826,4.937,4.667,4.937s4.193-1.758,4.193-5V938.811c0-1.623.338-2.232,1.691-2.232,1.082,0,1.488.338,1.488,1.353v16.841c0,.879-.271,1.15-.879,1.285l-.676.2v.541Zm40.716-18.937c0-.879.271-1.15.879-1.217l.812-.2V935.9h-6.29v.541l.676.2c.609.2.879.406.879,1.285v16.976c0,.812-.338,1.285-1.285,1.285-1.082,0-1.217-.338-1.623-2.164l-3.855-18.194h-1.217l-3.72,17.585c-.406,1.961-.609,2.435-1.488,2.638l-.541.135v.541h4.329v-.541l-.609-.135c-.879-.2-1.15-.676-.676-2.976l2.164-11.227,2.367,11.9c.338,1.758.338,2.1-.947,2.3l-.609.135v.541h16.1v-6.9h-.609c-.271,3.179-.947,6.222-3.517,6.222h-1.217V937.864Zm-9.469,13.324v-.812h-4.126l-.135.812ZM347.041,938.27v14.474c0,2.164,0,3.246-1.082,3.382l-.541.068v.541h4.464v-.541c-1.961-.271-1.961-.947-1.961-3.314v-13.8l-.744-.676,7.44,18.261H355.9V939.961c0-2.5,0-3.044,1.217-3.382l.406-.135V935.9h-4.6v.541l.541.135c1.556.271,1.556.879,1.556,3.179v10.551l.271-.068L349.679,935.9H345.35v.541l.406.135c.473.135.744.676,1.285,1.691m-9.739-1.623h1.217c1.217,0,2.367.812,2.367,4.734,0,4.058-.879,4.4-2.57,4.4H337.3Zm-20.223,9.469c0,8.792-.744,10.01-2.3,10.01s-2.3-1.217-2.3-9.942c0-8.454.744-9.672,2.3-9.672,1.556.068,2.3,1.285,2.3,9.6m3.314.2c0-5.817-1.826-10.619-5.614-10.619s-5.614,4.8-5.614,10.619,1.826,10.619,5.614,10.619c3.855,0,5.614-4.8,5.614-10.619m-12.986-8.454c0-.879.2-1.15.812-1.285l.676-.2V935.9h-6.29v.541l.744.2c.609.135.947.338.947,1.217v14.609c0,2.029-.2,3.652-1.691,3.652a1.66,1.66,0,0,1-1.691-1.285c.068-.947,1.691-.879,1.758-2.367a1.391,1.391,0,0,0-1.217-1.623,2.015,2.015,0,0,0-2.1,2.232,3.588,3.588,0,0,0,3.585,3.855c2.5,0,4.464-1.691,4.464-4.937V937.864Zm-101.316,0c0-.879.271-1.15.879-1.217l.812-.2V935.9h-6.29v.541l.676.2c.609.2.879.406.879,1.285v16.976c0,.812-.338,1.285-1.285,1.285-1.082,0-1.285-.338-1.691-2.164l-3.855-18.194H195l-3.72,17.585c-.406,1.961-.609,2.435-1.488,2.638l-.541.135v.541h4.329v-.541l-.609-.135c-.879-.2-1.15-.676-.676-2.976l2.164-11.295,2.367,11.971c.338,1.758.338,2.1-.947,2.3l-.609.135v.541h16.1v-6.9h-.609c-.271,3.179-.947,6.222-3.517,6.222h-1.217V937.864Zm84.475-1.217h.676c1.894,0,2.5,2.976,2.705,6.222h.609V935.9H283.533v6.9h.609c.2-3.179.879-6.222,2.705-6.222h.676v18.126c0,.879-.271,1.15-.879,1.285l-.812.2v.541h6.561v-.541l-.947-.2c-.609-.135-.879-.338-.879-1.285V936.647ZM276.7,946.318h.947c1.353,0,1.759.541,2.029,3.855h.609v-8.454h-.609c-.338,2.638-.676,3.787-2.029,3.787H276.7v-8.928h2.1c2.367,0,2.841,2.976,3.179,6.222h.609v-6.9H272.035v.541l.676.2a1.134,1.134,0,0,1,.879,1.285v16.841c0,.879-.271,1.15-.879,1.285l-.676.2v.541h10.821v-6.9h-.609c-.338,3.179-.744,6.222-3.517,6.222h-2.1l.068-9.807Zm-11.43,0h.947c1.353,0,1.758.541,2.029,3.855h.609v-8.454h-.609c-.338,2.638-.676,3.787-2.029,3.787h-.947v-8.928h2.1c2.367,0,2.841,2.976,3.179,6.222h.609v-6.9H260.4v.541l.947.2a1.134,1.134,0,0,1,.879,1.285v16.841c0,.879-.271,1.15-.879,1.285l-.676.2v.541h10.754v-6.9h-.609c-.338,3.179-.744,6.222-3.517,6.222h-2.029v-9.807Zm-12.512-9.672h.879c1.217,0,2.367.812,2.367,4.734,0,3.99-.879,4.4-2.57,4.4h-.676Zm-4.6,20.155h6.155v-.541l-.676-.135c-.609-.135-.879-.474-.879-1.353v-8.251h1.15c.879,0,1.353.338,1.42,2.1l.135,3.855c.135,3.517,1.15,4.464,2.841,4.464,1.759,0,2.164-1.15,2.164-2.841v-.676h-.609v.541c0,1.15-.135,1.894-.609,1.894-.406,0-.406-.271-.541-1.691l-.2-2.705c-.271-3.652-.744-4.8-3.314-5.343a5.093,5.093,0,0,0,4.058-5.14,4.975,4.975,0,0,0-5.275-5.073H248.16v.541l.676.2c.609.2.879.406.879,1.285v16.841c0,.879-.271,1.15-.879,1.285l-.676.2v.541Zm-4.6-20.155h.676c1.894,0,2.5,2.976,2.705,6.222h.609V935.9H236.527v6.9h.609c.2-3.179.879-6.222,2.705-6.222h.676v18.126c0,.879-.271,1.15-.879,1.285l-.812.2v.541h6.425v-.541l-.812-.2a1.128,1.128,0,0,1-.879-1.285Zm-7.034,14.744c0-6.222-6.831-7.846-6.831-12.377,0-.947.338-2.435,1.894-2.435,2.164,0,2.976,2.841,3.382,6.222h.609v-6.9h-.338c-.135.676-.406.947-.812.947-.676,0-1.082-1.082-2.705-1.082-2.57,0-4.329,2.164-4.329,5,0,5.14,6.831,7.3,6.831,12.039,0,2.164-1.015,3.382-2.367,3.382-2.029,0-3.382-2.367-3.72-6.222h-.609v6.9h.338c.271-1.014.676-1.082,1.015-1.082.609,0,1.15,1.217,2.976,1.217,2.638-.068,4.667-2.435,4.667-5.614m-19.884-13.527c0-.879.271-1.15.879-1.217l.812-.2V935.9h-6.29v.541l.676.2c.609.2.879.406.879,1.285v16.841c0,.879-.271,1.15-.879,1.285l-.676.2v.541h9.942v-6.9h-.609c-.271,3.179-.947,6.222-3.517,6.222h-1.217Zm-20.02,13.324v-.812H192.5l-.135.812Zm-17.585,5.681h1.217l2.841-14.947h-.406l3.111,14.947h1.082l3.72-17.585c.406-1.826.609-2.5,1.353-2.638l.609-.135V935.9H188.3v.541l.609.135c.879.2,1.15.744.676,2.976l-2.367,11.768h.338l-2.435-12.445c-.271-1.15-.406-2.164.609-2.367l.676-.135V935.9h-5.884v.541l.406.068c.609.135.676.541.947,1.691l.947,4.531-.2-2.705-2.1,11.024h.271l-2.435-12.107c-.271-1.217-.338-2.164.609-2.367l.473-.068V935.9h-5.952v.541l.609.135c.541.135.879.406,1.217,2.1l3.72,18.194Zm-16.165-10.551h.947c1.353,0,1.758.541,2.029,3.855h.609v-8.454h-.609c-.338,2.638-.676,3.787-2.029,3.787h-.947v-8.928h2.1c2.367,0,2.841,2.976,3.179,6.222h.609v-6.9H158.274v.541l.676.2a1.134,1.134,0,0,1,.879,1.285v16.841c0,.879-.271,1.15-.879,1.285l-.676.2v.541h10.754v-6.9h-.609c-.338,3.179-.744,6.222-3.517,6.222h-2.1v-9.807ZM143.8,956.8h6.222v-.541l-.676-.135c-.541-.135-.879-.474-.879-1.353v-8.251h4.6v8.251c0,.879-.338,1.218-.879,1.353l-.676.135v.541h6.222v-.541l-.676-.2c-.609-.135-.879-.473-.879-1.353V937.864c0-.879.271-1.15.879-1.285l.676-.2V935.9h-6.222v.541l.676.2c.541.135.879.338.879,1.217v7.778h-4.6v-7.778c0-.879.338-1.082.879-1.217l.676-.2V935.9H143.8v.541l.676.2c.609.2.879.406.879,1.285v16.841c0,.879-.271,1.15-.879,1.285l-.676.2v.541Zm-4.667-20.155h.676c1.894,0,2.5,2.976,2.705,6.222h.609V935.9H132.1v6.9h.609c.2-3.179.879-6.222,2.705-6.222h.676v18.126c0,.879-.271,1.15-.879,1.285l-.812.2v.541h6.561v-.541l-.947-.2c-.609-.135-.879-.338-.879-1.285V936.647Z" transform="translate(-132.1 -935.7)" fill="#fff"/>
  </g>
</svg>
