<svg xmlns="http://www.w3.org/2000/svg" width="45.433" height="36.825" viewBox="0 0 45.433 36.825">
  <g id="fox-news-logo" opacity="0.38">
    <path id="kliegs-and-fox-news" d="M40.238,24.074c-2.423,0-3.907,1.489-3.907,3.493,0,1.732,1.01,2.585,3.029,3.19,1.206.363,1.848.333,1.848,1.111,0,.409-.379.727-1.01.727a1.575,1.575,0,0,1-1.732-1.3l-2.554.56a3.964,3.964,0,0,0,4.245,3.221,4.039,4.039,0,0,0,3.029-1.247,3.428,3.428,0,0,0,.893-2.342,2.953,2.953,0,0,0-.873-2.267h.005a5.392,5.392,0,0,0-2.423-1.08c-1.075-.3-1.666-.333-1.666-.959a.843.843,0,0,1,.929-.757,1.393,1.393,0,0,1,1.469,1.065l2.322-.772a3.569,3.569,0,0,0-3.6-2.645ZM33.954,35.059l2.474-10.641H34.236l-1.317,6.093-1.287-6.093H29.36l-1.227,6.154-1.277-6.154H24.145L26.6,35.059h2.474l1.212-6.1,1.247,6.1h2.418ZM23.686,32.5h-4.24V30.708h3.438V28.431H19.445v-1.55H23.63V24.418H16.8V35.059h6.891V32.5Zm-7.562-8.052H13.5l-.01,5.311-3.17-5.3H7.244v10.6h2.7V28.87l3.619,6.179h2.559v-10.6ZM15.3,22.212h3.377v-3.7h3.317v-3.1H18.678V13.938h4.038l-.222-3.11H15.3V22.212Zm7.264-5.639a5.825,5.825,0,0,0,5.916,5.73h.01a5.825,5.825,0,0,0,5.906-5.73,5.921,5.921,0,0,0-11.833,0Zm10.248-5.729,3.322,5.472-3.418,5.861h3.63L38,19.385l1.7,2.8h3.715l-3.584-5.9,3.226-5.437h-3.68l-1.388,2.362-1.439-2.367H32.813ZM44.2,22.762h-.56a36.82,36.82,0,0,1,1.711,3.614h.086V36.826H.309l6.253-9.763V23.726H8.521l6.118-9.98V10.1h2.479l3.453-5.361a36.268,36.268,0,0,1,11.888,5.487h.858Q32.4,9.541,31.43,8.915A36.4,36.4,0,0,0,20.859,4.291L23.686,0H45.433V25.336q-.575-1.308-1.237-2.575ZM7.542,0H0V5.048A36.318,36.318,0,0,1,6.875,3.463ZM28.484,19.873a1.04,1.04,0,0,0,1.037-.967V14.074a1.086,1.086,0,0,0-1.065-1.045,1.055,1.055,0,0,0-1.01,1.045v4.831a1.04,1.04,0,0,0,1.037.967ZM17.754,0H12.938L11.727,3.14a36.617,36.617,0,0,1,4.346.252Zm-6.2,3.635L.054,36.826H.108L15.846,3.867A35.607,35.607,0,0,0,11.555,3.635Zm-4.791.348L0,36.235V5.6H.03a35.746,35.746,0,0,1,6.734-1.62Z" fill="#fff" fill-rule="evenodd"/>
  </g>
</svg>
