<svg xmlns="http://www.w3.org/2000/svg" width="258.966" height="36.485" viewBox="0 0 258.966 36.485">
  <g id="new-york-times" opacity="0.38">
    <path id="Path_384" data-name="Path 384" d="M28.435,6.088a1.414,1.414,0,0,0-.713.221c.945.189,2.052.316,2.649,1.177a.771.771,0,0,1-.093,1.084,2.346,2.346,0,0,1-2.366.67c-2.814-.664-5.476-1.956-8.368-2.292a5.05,5.05,0,0,0-4.131,1.619,4.578,4.578,0,0,0-1.15,3.849,2.846,2.846,0,0,0,2.164,2.346,2.14,2.14,0,0,1-.1-2.8,1.8,1.8,0,0,1,1.7-.472c2.241.417,4.425,1.091,6.66,1.545,1.251.341,2.488.747,3.768.98q.035,2.293,0,4.585c-.826.616-1.614,1.28-2.424,1.917.788.59,1.6,1.143,2.416,1.7.053,2.162-.008,4.324.031,6.486a6.485,6.485,0,0,1-4.743,1.007,6.632,6.632,0,0,1-4.383-2.37c1.893-1.01,3.822-1.962,5.758-2.888.068-3.409.012-6.82.031-10.23-2.419,1.014-4.814,2.083-7.225,3.113a7.907,7.907,0,0,1,3.806-4.085,3.534,3.534,0,0,0-1.316.186,11.486,11.486,0,0,0-6.757,7.214,10.218,10.218,0,0,0,.267,6.393,10.346,10.346,0,0,0,4.681,5.413,8.956,8.956,0,0,0,3.919,1.235,9.634,9.634,0,0,0,7.868-3.02,9.242,9.242,0,0,0,1.7-3.253,9.878,9.878,0,0,0,.527-3.539A13.124,13.124,0,0,1,28.734,28.7c.011-2.154,0-4.308,0-6.462.737-.562,1.478-1.124,2.192-1.715-.733-.649-1.461-1.3-2.192-1.948,0-1.515,0-3.033,0-4.546,1.649-.087,3.548-.957,3.992-2.687a4.234,4.234,0,0,0-.221-3.489,4.4,4.4,0,0,0-2.432-1.529,12.706,12.706,0,0,0-1.642-.232ZM20.718,16.477c-.006,3.284.019,6.567-.012,9.851-.548.215-1.087.451-1.626.689a12,12,0,0,1-1.9-4.852,10.76,10.76,0,0,1,.7-4.282C18.834,17.429,19.767,16.939,20.718,16.477ZM209.9,6.088a1.2,1.2,0,0,0-.771.221,7.237,7.237,0,0,1,1.669.445,1.943,1.943,0,0,1,.933,1.162,1.156,1.156,0,0,1-.743,1.185,3.756,3.756,0,0,1-2.559-.023c-1.983-.607-3.913-1.392-5.936-1.866a6.885,6.885,0,0,0-3.179-.155,5.07,5.07,0,0,0-2.966,1.882,4.362,4.362,0,0,0-.554,3.977,2.731,2.731,0,0,0,2.052,1.855c-.325-.418-.885-.84-.724-1.437a2.478,2.478,0,0,1,.809-1.576,1.907,1.907,0,0,1,1.673-.194c2.017.375,3.985.941,5.979,1.413,1.351.287,2.648.791,4.008,1.042.023,1.522.005,3.045.011,4.569-.731.646-1.462,1.291-2.184,1.948.728.562,1.443,1.138,2.18,1.688.011,2.167,0,4.337.012,6.505a6.129,6.129,0,0,1-4.515.979,6.725,6.725,0,0,1-4.352-2.354,13.355,13.355,0,0,1,1.5-.8c1.416-.7,2.813-1.426,4.24-2.1.045-3.412.005-6.826.019-10.238-2.4,1.024-4.789,2.1-7.2,3.1a7.454,7.454,0,0,1,2.617-3.307,2.772,2.772,0,0,1,1.2-.774,3.617,3.617,0,0,0-1.433.244,11.153,11.153,0,0,0-6.939,8.062,11.835,11.835,0,0,0,.585,5.587,10.691,10.691,0,0,0,4.232,5.111,12.751,12.751,0,0,0,2.935,1.32,10.7,10.7,0,0,0,7.268-1.255,8.549,8.549,0,0,0,3.341-3.95,11.5,11.5,0,0,0,.929-4.511,13.634,13.634,0,0,0-.724,1.266,12.122,12.122,0,0,1-3.171,3.574c.016-2.161-.019-4.321.019-6.482.731-.528,1.417-1.117,2.153-1.642-.678-.7-1.448-1.31-2.168-1.967-.014-1.515.017-3.031-.015-4.546a4.508,4.508,0,0,0,3.613-1.971,4.258,4.258,0,0,0,.023-4.306,3.923,3.923,0,0,0-2.528-1.456c-.439-.036-.9-.215-1.339-.228Zm-7.779,10.385c.018,3.277,0,6.554.008,9.831-.559.234-1.111.481-1.669.716a10.943,10.943,0,0,1-1.762-3.775,8.318,8.318,0,0,1,.565-5.355C200.224,17.432,201.17,16.952,202.121,16.473ZM86.933,7.18a4.1,4.1,0,0,1-1.044,4.973,11.513,11.513,0,0,1-2.8,1.174c.022,6.613,0,13.229.006,19.842a.357.357,0,0,1-.494.418c-.562-.026-.711-.62-.95-1.019-3.46-6.363-6.883-12.747-10.371-19.1-.067,4.67,0,9.344-.033,14.015A7.344,7.344,0,0,1,75.581,29.9c.5-.387.824-1.069,1.465-1.225a4.253,4.253,0,0,1-.626.787q-1.87,2.07-3.736,4.149A3.593,3.593,0,0,0,70.374,32.1a2.277,2.277,0,0,0-1.828.508,1.626,1.626,0,0,0-.508,1.95c.445.971,1.563,1.234,2.5,1.467A4.131,4.131,0,0,1,67.1,35.33a4.537,4.537,0,0,1-1.639-2.466,4.312,4.312,0,0,1,1.177-3.888,5.675,5.675,0,0,1,4.323-1.44c.042-2.035.023-4.07.009-6.105-.751-.119-1.775-.012-2.125.773a1.443,1.443,0,0,0,.747,1.521,2.827,2.827,0,0,1-1.659-.668,4.806,4.806,0,0,1-1.03-2.125,3,3,0,0,1,.96-2.806,4.833,4.833,0,0,1,3.119-.748v-4.3a3.83,3.83,0,0,0-1.429-1.555,1.319,1.319,0,0,0-1.383.094,3.613,3.613,0,0,0-.852,1.758,5.45,5.45,0,0,1,1-4.38,3.605,3.605,0,0,1,5.347-.184,9.412,9.412,0,0,1,1.422,2.131c2.571,4.578,5.091,9.186,7.688,13.749.015-3.784.023-7.571,0-11.354-.446-.173-.943-.169-1.4-.327A5.207,5.207,0,0,1,79.2,11.648c-.39.458-.784.915-1.148,1.394l-.339-.184c1.332-1.679,2.76-3.282,4.146-4.918A4.3,4.3,0,0,0,84.615,9.4,2.585,2.585,0,0,0,86.933,7.18Zm86.459,3.663c1.859-1.211,3.714-2.433,5.579-3.635.015,7.146-.014,14.294.015,21.44a13.267,13.267,0,0,0,1.441,1.481c.307-.328.626-.643.942-.96.074.074.223.223.3.3-1.488,1.29-2.93,2.63-4.428,3.906-.943-.968-1.919-1.9-2.854-2.875-.42.373-.8.782-1.2,1.18l-.322-.249c.714-.683,1.479-1.309,2.2-1.986-.006-5.416,0-10.832-.006-16.247-.017-1.013-.533-2.226-1.667-2.351Zm-138.779.211c1.6-1.193,3.169-2.429,4.77-3.617.008,3.937,0,7.876,0,11.814,1.355-1.118,2.721-2.223,4.062-3.356,1.076,1.117,2.082,2.3,3.191,3.384q.7-.5,1.439-.956c-.088.624-.835.838-1.222,1.273,0,2.153,0,4.3,0,6.457.031,1.609-.2,3.208-.249,4.815a6.435,6.435,0,0,1-2.11,4.671A6.838,6.838,0,0,1,40.44,37l-.1.139.039-.127q-.746,0-1.488-.056A6,6,0,0,0,40.7,35.9a6.286,6.286,0,0,0,1.5-2.051,12.7,12.7,0,0,0,.513-3.923c-.012-2.951.014-5.9-.014-8.852-.657-.856-1.444-1.612-2.14-2.439a13.337,13.337,0,0,0-1.165,1.2c-.026,3.045,0,6.092-.011,9.136.4.394.788.79,1.186,1.18q.479-.481.957-.965l.283.279c-1.549,1.211-3.082,2.441-4.631,3.651-.98-.87-1.938-1.766-2.9-2.653-.324.242-.647.486-.973.726l-.276-.291c.743-.479,1.473-.979,2.209-1.467q0-8.122,0-16.243a2.536,2.536,0,0,0-.214-1.228c-.144-.282-.469-.372-.713-.542-.054-.18.2-.255.3-.367ZM141.287,8.179c-1.456,1.179-2.879,2.394-4.321,3.589-.015-1.128.019-2.253-.019-3.38-.223-.011-.321.09-.29.3q-.012,11.955,0,23.91c-.787-.15-1.575-.307-2.354-.484-.012-6.722,0-13.442,0-20.166a3.721,3.721,0,0,0-.852-2.354A4.041,4.041,0,0,0,130.6,8.315a4.629,4.629,0,0,0-3.26,1.464,3.342,3.342,0,0,0-1,3.028,2.42,2.42,0,0,1,.941-1.816,1.674,1.674,0,0,1,2,.585,3.223,3.223,0,0,1,.4,1.77c0,1.817,0,3.634,0,5.452-1.2.019-2.614.212-3.307,1.324a3.027,3.027,0,0,0-.434,3.129,2.79,2.79,0,0,0,2.346,1.7c-.548-.355-1.106-.979-.782-1.673a1.945,1.945,0,0,1,2.161-.6c.029,3.224.016,6.448.008,9.672a4.96,4.96,0,0,0-2.757,2.087,4.477,4.477,0,0,0,1.975,5.893,6.747,6.747,0,0,0,3.121.434c2.989-.178,5.829-1.365,8.824-1.463a1.274,1.274,0,0,1,1.181,1.692,3.067,3.067,0,0,1-1.316,1.58,6.428,6.428,0,0,0,2.92-1.332A4.012,4.012,0,0,0,144.915,38a3.317,3.317,0,0,0-2.006-2.559,6.9,6.9,0,0,0-4.3-.437c-2.686.31-5.3,1.162-8.015,1.235a1.9,1.9,0,0,1-1.963-1.491,1.942,1.942,0,0,1,1.212-2,7.8,7.8,0,0,1,4.937-.12c1.869.2,3.623.958,5.494,1.15a4.338,4.338,0,0,0,3.063-.728,3.152,3.152,0,0,0,1.328-2.652c.011-6.344-.011-12.687.012-19.031A16.429,16.429,0,0,0,146.4,9.825c-.706.175-1.149.837-1.727,1.243-1.142-.95-2.259-1.924-3.388-2.889Zm-3.168,3.206c.651.558,1.291,1.126,1.94,1.688,0,2,0,4,0,5.994a2.005,2.005,0,0,1-1.1.681,2.453,2.453,0,0,1-2-.662q0-3.5,0-7C137.349,11.858,137.735,11.625,138.119,11.385Zm-1.158,8.255a3.092,3.092,0,0,0,3.1,0c0,.906,0,1.816,0,2.722a2.044,2.044,0,0,0-1.394-.654,2.791,2.791,0,0,0-1.7.654C136.964,21.459,136.96,20.55,136.961,19.64Zm1.7,2.358a1.839,1.839,0,0,1,1.4.956c0,2.529,0,5.06,0,7.589a2.327,2.327,0,0,1-1.069,1.886,2.921,2.921,0,0,1-2.013.426c-.039-3.3,0-6.613-.016-9.916a2.382,2.382,0,0,1,1.7-.941Zm76.25-9.7c1-.88,1.948-1.825,2.974-2.679.867.915,1.781,1.786,2.662,2.687q-1.587,1.485-3.194,2.946c-.81-.99-1.643-1.956-2.442-2.954Zm-115.837.942a4.671,4.671,0,0,1,2.145-.5,2.655,2.655,0,0,0-1.228,1.679,1.819,1.819,0,0,0,.79,1.665c.894.716,2.041,1.115,2.769,2.032a2.462,2.462,0,0,1,.547,1.572c0,3,0,6.008,0,9.011.8.646,1.6,1.284,2.4,1.93l.7-.451c-.011-3.279.017-6.559-.014-9.837a15.685,15.685,0,0,0-1.448-1.264c1.152-1.061,2.281-2.15,3.457-3.184,1.022,1,2.1,1.953,3.146,2.929q-.6.632-1.228,1.23c-.008,2.882,0,5.765,0,8.647,1.047.812,2.094,1.625,3.152,2.424.149-.087.3-.172.452-.257-.016-3.52,0-7.039-.009-10.56-.485-.414-.987-.808-1.465-1.23,1.131-1.069,2.275-2.119,3.412-3.18q1.7,1.329,3.392,2.666a13.132,13.132,0,0,1,1.236-1.234l.232.33c-.963.858-1.921,1.727-2.854,2.618-.081,2.806,0,5.622-.039,8.43-2.452,1.611-5.012,3.081-7.5,4.648-1.312-.94-2.587-1.931-3.882-2.893-1.162.934-2.325,1.869-3.494,2.794-.167.186-.339-.085-.477-.163-1.094-.878-2.181-1.764-3.288-2.622-.465.406-.952.785-1.419,1.191-.074-.071-.22-.212-.294-.282.568-.393,1.124-.807,1.693-1.2q0-4.082,0-8.162a2.981,2.981,0,0,0-.754-2,12.951,12.951,0,0,1-1.718-1.705A3.833,3.833,0,0,1,97.13,15.6,4.277,4.277,0,0,1,99.071,13.244Zm172.375,1.944a1.092,1.092,0,0,1,.008.887,2.146,2.146,0,0,1-2.068,1.069,3.488,3.488,0,0,1-2.037-1.235c-.939.629-1.882,1.253-2.819,1.882a19.791,19.791,0,0,1-3.473,1.766c0,1.54,0,3.076,0,4.615.875.729,1.775,1.426,2.633,2.176-.658.7-1.307,1.4-1.928,2.133a4.624,4.624,0,0,0-1.278,2.687,3.438,3.438,0,0,0,1.5,3.063,1.811,1.811,0,0,0,1.549.3c-.663-.237-1.478-.717-1.421-1.526a1.54,1.54,0,0,1,1.847-1.057,3.952,3.952,0,0,1,1.928,1.409,51.068,51.068,0,0,1,6.327-3.884c-.017-1.953.027-3.911-.019-5.862-.971-.681-1.9-1.424-2.857-2.118a12.093,12.093,0,0,0,2.462-4.259,2.085,2.085,0,0,0-.352-2.048Zm-6.474,2.927a4.344,4.344,0,0,0,2.7,2.041,3.3,3.3,0,0,0,3.094-1.212,17.434,17.434,0,0,1-4.395,4.933c-.458-.486-.952-.939-1.405-1.429.018-1.444,0-2.889.007-4.333Zm1.661,5.839c.508.427,1.01.863,1.518,1.293.232.139.119.431.151.651-.014,1.677.021,3.36-.019,5.038a4.807,4.807,0,0,0-1.75-2.165,3.744,3.744,0,0,0-3.946-.066,5.564,5.564,0,0,0-1.386,1.2,12.682,12.682,0,0,1,2.428-2.958C264.647,25.969,265.666,24.989,266.633,23.954ZM57.487,15.9c-1.338.774-2.631,1.619-3.942,2.436-1.111.579-2.239,1.126-3.357,1.688,0,3.136,0,6.273.008,9.409A15.781,15.781,0,0,0,48.729,30.5c.084.049.249.15.333.2a12.094,12.094,0,0,1,1.158-.929c1.386,1.152,2.694,2.4,4.077,3.558l.275-.143c2.342-1.815,4.708-3.6,7.051-5.417l-.29-.256c-1.3,1.016-2.573,2.086-3.864,3.117-1.067-.96-2.1-1.958-3.163-2.923-.362-.265-.16-.767-.186-1.142,2.185-1.6,4.372-3.2,6.524-4.844-1.075-1.927-2.115-3.871-3.156-5.816Zm-3.376,2.312c1.106,1.817,2.217,3.627,3.311,5.452q-1.668,1.173-3.314,2.37C54.1,23.43,54.091,20.822,54.111,18.216Zm39.6-2.315c-.943.621-1.893,1.234-2.858,1.82-1.411.883-2.94,1.547-4.418,2.308,0,3.135-.009,6.27,0,9.405-.455.339-.959.608-1.4.964.046.082.143.247.19.329.491-.33.976-.668,1.479-.98,1.268,1.213,2.556,2.407,3.833,3.609,2.39-1.775,4.735-3.613,7.1-5.421.3-.062.054-.554-.139-.364-1.282.994-2.527,2.04-3.791,3.059q-1.487-1.475-2.962-2.958c-.319-.28-.13-.748-.147-1.115,2.1-1.561,4.142-3.211,6.25-4.767C95.876,19.791,94.74,17.869,93.707,15.9ZM90.57,18.277c1.084,1.766,2.078,3.59,3.078,5.405-1.033.757-2.031,1.561-3.055,2.331-.048-2.577,0-5.158-.023-7.736Zm64.23-2.37c-1.035.6-2.055,1.224-3.059,1.874a33.017,33.017,0,0,1-3.721,1.793c.029,3.29.008,6.58.012,9.87-.42.418-.843.835-1.251,1.262.085,0,.256-.017.341-.023.3-.318.607-.627.914-.937,1.408,1.152,2.795,2.33,4.193,3.493.231.223.492-.109.716-.19,2.249-1.23,4.374-2.679,6.691-3.783.036-3.065.011-6.129.016-9.2.418-.418.842-.835,1.251-1.262-.082,0-.246.009-.329.012-.39.321-.785.633-1.177.949C157.863,18.483,156.336,17.187,154.8,15.908Zm-2.622,2.273c1.106,1.039,2.232,2.063,3.338,3.105-.011,3.263-.008,6.525-.008,9.789-1.134-.994-2.21-2.049-3.33-3.059Z" transform="translate(-13.249 -6.086)" fill="#fff"/>
    <path id="Path_385" data-name="Path 385" d="M985.518,76.789c1.6-2.449,3.225-4.876,4.86-7.3a4.594,4.594,0,0,0,2.507,1.069,3.946,3.946,0,0,0,2.357-1.073,5.777,5.777,0,0,1-1.626,3.612,3.354,3.354,0,0,1-3.339.61,6.1,6.1,0,0,1-1.808-1,4.447,4.447,0,0,0-.232.7c2.264,3.411,4.488,6.852,6.713,10.29a11.488,11.488,0,0,0,1.41-1.157l.352.223c-1.6,1.426-3.251,2.8-4.891,4.177C989.712,83.559,987.65,80.152,985.518,76.789Zm76.6-7.314c-.985.6-1.974,1.2-2.947,1.816a47.836,47.836,0,0,1-4.317,2.308c.016,3.135,0,6.272.008,9.405-.493.325-.979.657-1.471.976l.255.314a15.608,15.608,0,0,1,1.266-.96c1.278,1.188,2.614,2.312,3.911,3.481.124.2.3,0,.43-.085q3.5-2.7,7.016-5.382c-.274-.48-.585-.015-.859.182q-1.647,1.341-3.3,2.676c-1.126-1.027-2.213-2.092-3.361-3.094a9.626,9.626,0,0,1,0-.968c2.192-1.588,4.358-3.212,6.532-4.824Q1063.715,72.388,1062.122,69.475Zm-3.381,2.366c1.185,1.752,2.226,3.6,3.338,5.405-1.128.773-2.224,1.591-3.345,2.37C1058.752,77.025,1058.735,74.432,1058.741,71.841Zm-87.005-2.108c.886.807,1.631,1.758,2.453,2.63.9-.858,1.77-1.741,2.635-2.631.629.4,1.284.968,2.091.805.568-.039.864-.6,1.348-.824a5.118,5.118,0,0,1-1.055,3.35,3.04,3.04,0,0,1-3.8.652,14.966,14.966,0,0,1-1.2-.92c.011,3.24.006,6.479,0,9.719.638.491,1.278.98,1.935,1.448.477-.313.844-.889,1.447-.943-1.416,1.347-2.9,2.63-4.375,3.914-1.109-1.045-2.243-2.065-3.339-3.122-.427.384-.822.8-1.229,1.207l-.26-.3c.537-.6,1.137-1.137,1.687-1.724-.02-2.772.011-5.545-.014-8.316a21.778,21.778,0,0,0-1.176-1.976c-.507.3-.875.922-1.505.943C968.814,72.318,970.311,71.065,971.736,69.733Zm57.472,3.466c1.318-1.154,2.608-2.337,3.934-3.482.951,1.049,1.935,2.068,2.869,3.132,1.4-1.011,2.745-2.1,4.131-3.132.971,1.041,1.924,2.1,2.9,3.132,1.374-1.041,2.731-2.1,4.114-3.13.945,1.053,1.919,2.08,2.875,3.124.585-.373,1.123-.821,1.719-1.179.045.347-.271.5-.491.7-.319.257-.629.527-.948.782-.026,2.884.006,5.768-.017,8.652q.825.856,1.682,1.679c.3-.314.612-.623.906-.945l.355.221c-1.445,1.423-2.935,2.8-4.419,4.186-1.045-1.234-2.142-2.429-3.163-3.685.248-.228.49-.465.728-.7q0-3.731,0-7.461c-.79-.881-1.577-1.766-2.391-2.624-.236.24-.471.479-.7.72,0,3.11.012,6.22-.008,9.33.392.44.833.833,1.231,1.272-1.07.949-2.1,1.944-3.166,2.9q-1.491-1.568-2.935-3.18c.274-.338.824-.582.737-1.1-.012-2.425.012-4.852-.012-7.276a29.681,29.681,0,0,0-2.175-2.659c-.224.239-.452.472-.682.706.006,3.012-.017,6.026.011,9.039a13.1,13.1,0,0,0,1.214,1.508c-1.039,1.092-2.113,2.153-3.2,3.2-1.035-1.233-2.106-2.433-3.149-3.658.325-.253.654-.5.98-.754-.009-2.545-.019-5.091,0-7.636-.61-.756-1.279-1.462-1.921-2.192a8.161,8.161,0,0,1-1.377,1C1028.827,73.456,1029.061,73.343,1029.208,73.2Z" transform="translate(-819.603 -59.657)" fill="#fff"/>
    <path id="Path_386" data-name="Path 386" d="M1307.38,74.713c1.363-1.248,2.774-2.449,4.151-3.683.98,1.115,1.933,2.255,2.909,3.375a14.12,14.12,0,0,1,1.521-1.194.666.666,0,0,1-.255.463c-.42.348-.836.7-1.26,1.038.006,2.889-.012,5.776.01,8.664.552.623,1.121,1.233,1.636,1.889.429-.262.787-.62,1.2-.911l.349.183c-1.361,1.276-2.774,2.5-4.193,3.709-.943-1.134-1.911-2.249-2.876-3.365a15.185,15.185,0,0,1-1.23,1.174c-.065-.06-.2-.184-.26-.246.409-.387.795-.8,1.21-1.183.033-2.624,0-5.251.016-7.874-.025-.366.093-.8-.192-1.089-.505-.627-.97-1.287-1.507-1.886A10.519,10.519,0,0,1,1307.38,74.713Z" transform="translate(-1106.942 -60.971)" fill="#fff"/>
  </g>
</svg>
