<svg xmlns="http://www.w3.org/2000/svg" width="93.223" height="24.37" viewBox="0 0 93.223 24.37">
  <g id="forbes" opacity="0.38">
    <path id="XMLID_33_" d="M208.212,227.9a3.654,3.654,0,0,0-1.838.378,5.892,5.892,0,0,0-2.77,2.77l-.252.428.025-.781c.025-.428.05-1.209.076-1.763l.025-.982H203.3c-.2,0-6.849,1.335-7.051,1.41-.126.05-.151.1-.151.428s.025.378.151.4c.076.025.378.076.68.126a1.273,1.273,0,0,1,1.007.529c.453.579.529,1.637.529,6.044a33.45,33.45,0,0,1-.252,5.968,1.47,1.47,0,0,1-1.234,1.158c-.2.05-.478.1-.6.126l-.227.05-.025.453c-.025.327,0,.478.076.529.05.025,2.317.05,5.036.05l4.961-.025.025-.529a2.077,2.077,0,0,0-.025-.529,8.463,8.463,0,0,1-1.763-.252c-.554-.227-.831-.73-.957-1.763-.126-1.184-.227-4.18-.176-6.6.05-2.468.05-2.468.2-2.644a3.23,3.23,0,0,1,2.09-.68,4.86,4.86,0,0,1,2.04.5,3.165,3.165,0,0,0,.705.277c.1-.025,1.712-4.331,1.712-4.533C210.051,228.2,209.119,227.9,208.212,227.9Z" transform="translate(-163.087 -221.302)" fill="#fff"/>
    <path id="XMLID_36_" d="M147.325,235.484c-.353-2.971-1.612-5.137-3.7-6.371a9.274,9.274,0,0,0-8.31-.176,8.036,8.036,0,0,0-3.928,4.659,11.84,11.84,0,0,0,0,6.875,7.259,7.259,0,0,0,1.914,3.223,7.11,7.11,0,0,0,4.13,1.989,20.177,20.177,0,0,0,3.022,0c.277-.05.781-.151,1.083-.227a7.965,7.965,0,0,0,5.641-6.346A15.675,15.675,0,0,0,147.325,235.484Zm-7.454,8.914c-1.838.554-3.148-1.209-3.651-4.86a33.611,33.611,0,0,1,0-5.741c.353-2.946,1.259-4.432,2.694-4.432a1.828,1.828,0,0,1,1.511.655c1.209,1.209,1.763,3.525,1.763,7.152,0,2.9-.3,4.709-.932,5.943A2.919,2.919,0,0,1,139.871,244.4Z" transform="translate(-114.286 -221.408)" fill="#fff"/>
    <path id="XMLID_37_" d="M73.864,205.063h2.115c2.417,0,2.82.05,3.677.478,1.234.6,2.14,1.813,2.946,3.928.327.856.327.856,1.032.63l.478-.151-.05-3.1c-.025-1.712-.076-3.223-.076-3.349l-.05-.277-9.242-.025c-5.087,0-9.342,0-9.468.025l-.227.05.025.554.025.554.705.076a2.361,2.361,0,0,1,1.788.831c.73,1.058.856,2.518.856,9.393,0,7.328-.151,9.116-.856,10.022a1.9,1.9,0,0,1-1.486.781c-1.083.2-1.032.176-1.032.73,0,.3.025.478.076.5.126.05,11.936.05,12.062,0,.151-.05.151-.932,0-1.007-.076-.025-.453-.1-.881-.176a10.3,10.3,0,0,1-1.032-.227c-.781-.327-1.209-1.259-1.36-2.946-.126-1.209-.2-3.45-.2-5.087v-1.511l.73.025a9.294,9.294,0,0,1,2.644.277,3.218,3.218,0,0,1,1.536,2.367l.151.63.554.025.554.025v-8.058l-.554.025-.554.025-.151.63a3.166,3.166,0,0,1-1.561,2.342,2.932,2.932,0,0,1-1.234.227c-.478.025-1.158.05-1.486.05h-.63v-1.989c0-1.989.1-6.245.176-6.9Z" transform="translate(-65 -202.822)" fill="#fff"/>
    <path id="XMLID_38_" d="M396.789,237.866c-.554-1.133-1.612-1.889-3.777-2.8a8.966,8.966,0,0,1-3.2-1.838,1.8,1.8,0,0,1-.529-1.586,2.175,2.175,0,0,1,.63-1.511,2.137,2.137,0,0,1,2.166-.579c1.435.3,2.367,1.309,3.173,3.425.277.755.327.781.831.579l.327-.126v-.881c0-.478-.025-1.486-.05-2.241l-.05-1.36-.252-.1a13.966,13.966,0,0,0-5.49-.755,6.445,6.445,0,0,0-4.306,1.863,4.847,4.847,0,0,0-1.435,3.878,4.25,4.25,0,0,0,1.209,2.946,7.228,7.228,0,0,0,3.047,1.763c2.77,1.083,3.525,1.738,3.5,3.072a2.351,2.351,0,0,1-1.687,2.342,4.884,4.884,0,0,1-1.914,0c-1.385-.353-2.443-1.561-3.349-3.777l-.227-.579-.277.025a1.2,1.2,0,0,0-.453.1l-.176.1.025.982c0,.529.025,1.662.05,2.493l.05,1.536.3.126a18.171,18.171,0,0,0,3.727.806c.151.025.957.025,1.813,0a6.994,6.994,0,0,0,2.317-.227,5.606,5.606,0,0,0,4.231-3.626,3.943,3.943,0,0,0,.252-1.586A5.246,5.246,0,0,0,396.789,237.866Z" transform="translate(-304.044 -221.423)" fill="#fff"/>
    <path id="XMLID_42_" d="M332.575,228.657a8.212,8.212,0,0,0-6.749.151,7.871,7.871,0,0,0-4.079,4.835,9.189,9.189,0,0,0-.478,3.651,9.784,9.784,0,0,0,.176,1.914,7.951,7.951,0,0,0,6.472,6.421,12.954,12.954,0,0,0,3.123,0,8.377,8.377,0,0,0,3.047-1.184c.932-.63,1.889-1.586,1.889-1.889,0-.176-.327-.6-.453-.6a2.068,2.068,0,0,0-.579.3,5.009,5.009,0,0,1-3.022.831,4.819,4.819,0,0,1-3.828-1.511,3.8,3.8,0,0,1-.907-1.209,8.532,8.532,0,0,1-.881-3.6l-.025-.579,4.961-.025,4.961-.025.025-.327a9.829,9.829,0,0,0-.05-1.083C335.874,231.779,334.64,229.714,332.575,228.657Zm-4.986,6.119-1.259.025v-.277a8.54,8.54,0,0,1,.1-.881c.428-2.694,1.435-4.306,2.694-4.306,1.158,0,1.863,1.586,2.015,4.508l.05.831-1.158.05C329.377,234.726,328.269,234.751,327.589,234.776Z" transform="translate(-256.728 -221.379)" fill="#fff"/>
    <path id="XMLID_48_" d="M258.838,208.675a6.287,6.287,0,0,0-1.511-.076,6.943,6.943,0,0,0-2.82.6c-.277.126-.529.252-.554.252s-.025-1.738,0-3.878a23.662,23.662,0,0,0-.05-3.878c-.227,0-7.051,1.309-7.126,1.36a.694.694,0,0,0-.076.4c.025.378-.025.353.806.529a2.083,2.083,0,0,1,.655.252,2.335,2.335,0,0,1,.68,1.234c.126.478.151.831.2,4.1.05,3.349.05,6.8-.05,13.095l-.05,2.619.478.1c.705.151,2.745.5,3.4.579a25.972,25.972,0,0,0,3.979-.025,8.123,8.123,0,0,0,6.623-5.087,11.954,11.954,0,0,0,.68-2.72,15.505,15.505,0,0,0-.126-3.777C263.32,211.319,261.406,209.2,258.838,208.675Zm-4.785,15.789c-.076-.227-.176-8.083-.151-11.206l.025-2.443.453-.126a4.348,4.348,0,0,1,1.058-.126,1.813,1.813,0,0,1,1.108.252c1.158.579,1.939,1.989,2.317,4.13a20.38,20.38,0,0,1,.025,3.928c-.3,2.342-1.058,4.231-2.09,5.137a2.646,2.646,0,0,1-1.259.655,2.985,2.985,0,0,1-1.108.025C254.179,224.641,254.129,224.615,254.053,224.464Z" transform="translate(-200.945 -201.7)" fill="#fff"/>
  </g>
</svg>
